<svg width="122" height="56" viewBox="0 0 122 56" fill="none" xmlns="http://www.w3.org/2000/svg">
<path fill-rule="evenodd" clip-rule="evenodd" d="M70.5766 32.2871H65.4615V33.1446C66.4076 33.2037 67.3833 33.2333 67.3833 34.6525C67.3833 35.3621 67.2651 35.7465 67.1764 36.1013L64.1014 47.6916H64.0422L61.056 36.3083C60.8786 35.6578 60.6716 34.8299 60.6716 34.416C60.6716 33.2629 61.4699 33.2333 62.6822 33.115V32.2576H53.9303V33.115C55.2904 33.1742 55.5861 33.5585 55.9409 34.2977L56.9166 37.5797L53.6346 47.9873H53.5755L50.2344 35.6578C50.1162 35.2734 50.0275 34.889 50.0275 34.5342C50.0275 33.2629 50.7962 33.2037 51.8311 33.0855V32.228H43.5818V33.0855C44.7645 33.2924 45.0306 33.6472 45.5037 35.2734L51.4467 55.8521H52.245L57.3601 39.8563H57.5671L62.2978 55.8521H63.0665L68.6843 35.2734C69.0095 34.002 69.6304 33.1742 70.6061 33.0855V32.2871H70.5766ZM81.4868 54.5216C79.9493 54.3737 78.8258 54.285 78.8258 52.0971V35.5691C78.8258 33.2333 80.1563 33.2037 81.4868 33.1446V32.2871H71.6705V33.1446C72.9715 33.2333 74.2724 33.322 74.2724 35.5691V52.0971C74.2724 54.2259 73.1785 54.3442 71.6705 54.5216V55.379H81.4868V54.5216ZM95.6199 39.1467V31.7254H94.792C94.6441 32.3758 94.5259 32.8785 93.8754 32.8785C93.0475 32.8785 91.7466 31.7549 89.4995 31.7549C84.1774 31.7549 83.2904 36.397 83.2904 38.4962C83.2904 40.0633 83.2904 43.02 88.0803 45.7993L89.943 46.8933C91.7761 47.9577 93.0771 48.7856 93.0771 51.0622C93.0771 51.5057 92.9293 54.8764 89.5586 54.8764C85.981 54.8764 84.3548 51.0327 83.793 47.5733H83.0243V55.9999H83.8226C83.9409 55.4382 84.0591 54.8468 84.6505 54.8468C85.5079 54.8468 86.7793 55.9999 89.4403 55.9999C94.6146 55.9999 96.3886 51.8605 96.3886 48.8447C96.3886 45.1192 94.2598 43.1383 93.3136 42.5469L89.2038 40.0337C86.8384 38.6145 86.3062 37.8458 86.3062 36.0126C86.3062 33.7951 87.8437 32.7602 89.3221 32.7602C92.6336 32.7602 94.3189 36.6926 94.8215 39.0876H95.6199V39.1467ZM98.2218 25.6346C99.9366 25.7824 101.533 25.8711 101.533 28.8869V51.0031C101.533 53.8415 100.38 53.9598 98.2218 54.2555V55.4086H120.19L121.698 45.9176H120.634C118.268 52.8067 114.454 54.0189 110.758 54.0189C108.334 54.0189 107.595 53.4572 107.595 51.4466V40.3885C111.32 40.3885 113.212 41.7486 113.685 47.4846H114.661V32.0506H113.685C113.124 37.7275 111.202 38.9102 107.595 38.851V28.266C107.595 26.3146 108.275 26.1076 110.344 26.1076C115.4 26.1076 118.061 27.2607 118.948 33.7359H119.894V24.4814H98.2513V25.6346H98.2218Z" fill="#2E3192"/>
<path fill-rule="evenodd" clip-rule="evenodd" d="M31.6959 35.0369C31.6663 34.2977 31.6367 33.4403 33.4403 33.4403C38.2598 33.4403 38.9102 40.7138 38.9102 43.8183C38.9102 51.9788 36.4266 54.1668 33.2925 54.1668C31.9324 54.1668 31.6959 53.5459 31.6959 52.1858V35.0369ZM24.8363 55.379H33.7064C40.773 55.1129 43.8184 49.7908 43.8184 43.4931C43.8184 38.2301 41.2756 32.2871 33.4108 32.2871H24.8659V33.1446C25.9599 33.2924 27.2017 33.3516 27.2017 35.4508V52.2745C27.2017 53.5459 26.6399 54.5216 24.8659 54.5216V55.379H24.8363ZM0 25.6346C1.71489 25.7824 3.31151 25.8711 3.31151 28.8869V51.0031C3.31151 53.8415 2.15839 53.9598 0 54.2555V55.4086H21.9683L23.4762 45.9176H22.4118C20.0465 52.8067 16.2323 54.0189 12.5364 54.0189C10.1119 54.0189 9.37276 53.4572 9.37276 51.4466V40.3885C13.0982 40.3885 14.9905 41.7486 15.4636 47.4846H16.4393V32.0506H15.4636C14.9018 37.7275 12.9799 38.9102 9.37276 38.851V28.266C9.37276 26.3146 10.0528 26.1076 12.1225 26.1076C17.1785 26.1076 19.8395 27.2607 20.7265 33.7359H21.6726V24.4814H0V25.6346Z" fill="#ED1C24"/>
<path fill-rule="evenodd" clip-rule="evenodd" d="M47.0116 26.8764L47.5438 27.0834L48.1943 27.2017L48.8448 27.3495L49.5248 27.4974L50.264 27.6156L51.0328 27.7635L51.8015 27.8817L52.5998 27.9704L53.3981 28.0591L54.226 28.1478L55.0539 28.2365L55.9704 28.2957L56.7983 28.3252L57.7445 28.3548L58.6019 28.4139H59.5776L61.2629 28.3844L63.0074 28.2957L64.7223 28.1478L66.2893 28L67.7677 27.7635L69.2461 27.5269L70.6061 27.2017L71.848 26.9651L72.9419 26.6103L73.9472 26.1964L74.8047 25.7825L75.5143 25.3981L76.0465 24.9546L76.4309 24.5111L76.6378 24.038L76.6674 23.5649L75.5734 17.4741L59.6663 21.7909L43.3453 17.1785L42.4287 22.8258L42.4583 23.5649L42.547 23.9493L42.6948 24.3041L42.9609 24.6589L43.227 25.0137L43.2862 25.0433L43.3749 25.132L43.4045 25.0137L43.6706 25.1911L44.1141 25.4868L44.5576 25.7233L45.0602 26.019L45.622 26.2555L46.1838 26.5216L46.8342 26.7286L47.0412 26.7878L47.0116 26.8764ZM43.7001 22.8258L44.4984 18.5385L48.2534 19.396L47.1003 25.6642L47.0116 25.6346L46.3316 25.3685L45.5628 25.0729L44.8532 24.7181L44.2028 24.1563L43.7888 23.5354L43.7001 22.8258ZM90.3274 15.9366L90.4161 16.6462L90.1795 18.3611L90.0317 20.7561L90.0613 23.0032L90.1795 24.1858L90.0317 24.6294H90.0021L89.4699 24.0971L89.4108 22.9145V20.6378L89.5586 18.1837L89.943 16.4097L90.3274 15.9366ZM22.471 10.2598L59.9324 20.4308L90.4752 12.1521V14.133L89.943 14.1922L89.5291 14.3992L89.3221 14.6357L89.2038 14.9609V15.2566L89.4108 15.5523L89.5291 15.7888L89.7656 15.9366L89.2629 17.622L88.9968 20.49L89.056 23.2988L89.3516 24.8363H89.3812L89.736 25.1911L90.1795 25.3981L90.4752 25.4277H90.5935H90.7117L91.0074 25.3981L91.4213 25.1911L91.8353 24.8068L92.1605 23.2693V20.4604L91.8944 17.622L91.3918 15.9366L91.6283 15.7888L91.8057 15.5523L91.924 15.2566V14.9609L91.8944 14.6357L91.6579 14.3992L91.2439 14.1922L90.8596 14.133V12.0634L97.3939 10.2893L59.9324 0L22.471 10.2598Z" fill="#231F20"/>
<path fill-rule="evenodd" clip-rule="evenodd" d="M59.9324 16.3802H60.4942L61.0264 16.3507L61.5882 16.2915L62.1204 16.262L62.6526 16.1733L63.1848 16.0846L63.6874 15.9959L64.1901 15.9072L64.6632 15.7593L65.1362 15.6411L65.5797 15.4932L66.0528 15.3158L66.4667 15.1384L66.8807 14.961L67.2651 14.7541L67.679 14.5767L68.0338 14.3697L68.359 14.1331L68.6843 13.8966L68.9799 13.6601L69.2756 13.394L69.5417 13.1574L69.7783 12.8618L70.0148 12.5957L70.1922 12.3296L70.3696 12.0339L70.5174 11.7382L70.6357 11.4425L70.7244 11.1469L70.7835 10.8512L70.8427 10.526V10.2007V9.90506L70.7835 9.57982L70.7244 9.25458L70.6357 8.95891L70.5174 8.66324L70.3696 8.36757L70.1922 8.0719L70.0148 7.8058L69.7783 7.53969L69.5417 7.27359L69.2756 7.00749L68.9799 6.74138L68.6843 6.50485L68.359 6.26831L68.0338 6.06134L67.679 5.85437L67.2651 5.6474L66.8807 5.44043L66.4667 5.26303L66.0528 5.08563L65.5797 4.93779L65.1362 4.78996L64.6632 4.64212L64.1901 4.52385L63.6874 4.40558L63.1848 4.31688L62.6526 4.22818L62.1204 4.16905L61.5882 4.10991L61.0264 4.08035L60.4942 4.05078H59.9324H59.3707L58.8089 4.08035L58.2767 4.10991L57.7445 4.16905L57.1827 4.22818L56.68 4.31688L56.1774 4.40558L55.6748 4.52385L55.2017 4.64212L54.7286 4.78996L54.2556 4.93779L53.812 5.08563L53.3981 5.26303L52.9842 5.44043L52.5702 5.6474L52.2154 5.85437L51.8311 6.06134L51.5058 6.26831L51.151 6.50485L50.8553 6.74138L50.5892 7.00749L50.2936 7.27359L50.057 7.53969L49.8501 7.8058L49.6431 8.0719L49.4953 8.36757L49.3474 8.66324L49.2292 8.95891L49.1109 9.25458L49.0518 9.57982L48.9926 9.90506V10.2007V10.526L49.0518 10.8512L49.1109 11.1469L49.2292 11.4425L49.3474 11.7382L49.4953 12.0339L49.6431 12.3296L49.8501 12.5957L50.057 12.8618L50.2936 13.1574L50.5892 13.394L50.8553 13.6601L51.151 13.8966L51.5058 14.1331L51.8311 14.3697L52.2154 14.5767L52.5702 14.7541L52.9842 14.961L53.3981 15.1384L53.812 15.3158L54.2556 15.4932L54.7286 15.6411L55.2017 15.7593L55.6748 15.9072L56.1774 15.9959L56.68 16.0846L57.1827 16.1733L57.7445 16.262L58.2767 16.2915L58.8089 16.3507L59.3707 16.3802H59.9324Z" fill="white"/>
<path fill-rule="evenodd" clip-rule="evenodd" d="M65.6389 14.8424L65.5797 14.7833L65.491 14.7241L65.4023 14.665L65.3136 14.6059L65.2249 14.5467L65.1362 14.4876L65.1066 14.458L65.0771 14.4285H65.0475H65.0179H64.9884H64.9588L64.9292 14.458L64.8997 14.4876L64.8701 14.5172L64.811 14.5467L64.7814 14.5763L64.7518 14.6059L64.6927 14.6354L64.6631 14.665L64.6336 14.6946H64.5744L64.5449 14.7241H64.5744L64.4857 14.6946L64.397 14.665L64.3083 14.6354H64.2196H64.1309H64.0422L63.9535 14.665L63.8648 14.6946L63.8353 14.7241H63.8057H63.7761H63.7466L63.717 14.6946L63.6874 14.665L63.6579 14.6354L63.6283 14.6059H63.5987L63.5692 14.5763H63.5396H63.51H63.4805H63.4509H63.4213L63.3918 14.6059H63.3326L63.2735 14.6354L63.2144 14.665L63.1552 14.6946H63.0961L63.037 14.7241H63.0074H62.9483H62.9187H62.8596L62.83 14.6946H62.623H62.5934L62.5343 14.665L62.5048 14.6354L62.4752 14.6059L62.4456 14.5763L62.3569 14.5467H62.2978L62.2091 14.5172L62.1204 14.5467H62.0317L61.9725 14.5763L61.8838 14.6059L61.7064 14.6354L61.529 14.665H61.3516L61.2038 14.6354L61.0264 14.5763L60.8786 14.5467L60.7307 14.4876L60.5829 14.4285L60.5533 14.3989L60.5238 14.3693H60.4942H60.4646H60.4055H60.3759L60.3464 14.3989L60.3168 14.4285L60.2577 14.458L60.1985 14.4876L60.1394 14.5172L59.962 14.4285L59.8733 14.458L59.8141 14.4876L59.755 14.5172L59.6959 14.5467L59.6072 14.5763H59.5185L59.4298 14.5467H59.3411L59.2819 14.5172H59.1932L59.1045 14.5467L59.0158 14.5763L58.9567 14.6059L58.9271 14.6354H58.868L58.8089 14.665H58.7497L58.6906 14.6946L58.661 14.7241H58.6019L58.5132 14.7537L58.4245 14.8128L58.3358 14.8424L58.2471 14.9015L58.1584 14.9311L58.0697 14.9607L57.981 14.9902L57.8923 14.9607L57.8036 14.9311L57.7149 14.9015L57.6262 14.872L57.5375 14.8128L57.4488 14.7833L57.3601 14.7241L57.2714 14.6946L57.1827 14.6354L57.094 14.6059L57.0053 14.5763L56.9166 14.6059L56.8279 14.6354L56.7392 14.665L56.6505 14.6946L56.5618 14.7241H56.5322L56.5026 14.7537L56.4731 14.7833H56.4435H56.4139H56.3548H56.2957H56.2365L56.1774 14.8128L56.1478 14.8424L56.1183 14.872L56.0887 14.9311V14.9902H56H55.9113H55.8226L55.7339 14.9607H55.6452H55.5565H55.5269H55.4382H55.4678V14.9311H55.4382V14.9015H55.4087H55.3791L55.3495 14.872H55.32L55.2904 14.9015L55.2608 14.9311V14.9607L55.2313 14.9902V15.0198L55.2017 15.0494L55.1721 15.0789H55.1426H55.113L55.0834 15.0494L55.0539 15.0198H55.0243L54.9947 14.9902H54.9652L54.9356 14.9607L54.906 14.9902H54.8765L54.8469 15.0198H54.8173L54.7877 15.0494L54.7582 15.0789L54.7286 15.1085L54.699 15.1381L54.6695 15.1676L54.6399 15.1972V15.2268H54.6103H54.5808L54.5512 15.2564H54.5808L55.2904 15.4338L56.0296 15.5816L56.7687 15.6999L57.4784 15.7886L58.1288 15.8477L58.6906 15.9068L59.1932 15.9364L59.548 15.966H59.9916L60.4351 15.9364L60.8786 15.9068L61.3221 15.8773L62.2386 15.7886L63.0961 15.6703L63.8944 15.5225L64.5744 15.3746L65.1362 15.2268L65.6389 14.8424ZM56.0296 9.81601L56.0887 9.84558L56.1183 9.87515L56.1478 9.90471L56.1774 9.93428L56.207 9.96385L56.2365 9.99341L56.2661 10.023L56.3252 10.0821L56.3844 10.1412L56.4435 10.2004L56.5026 10.23L56.5618 10.2891L56.6505 10.3187L56.7096 10.3482L56.7983 10.3778L56.8574 10.4074L56.887 10.4369L56.9166 10.4961L56.9461 10.5256L56.9757 10.5848L57.0053 10.6439L57.0348 10.703L57.0644 10.7326L57.1531 10.7917L57.2418 10.8509L57.3601 10.8804L57.4488 10.9396L57.5375 10.9987L57.5966 11.0578V10.8804L57.6262 10.91V10.9691V11.0283L57.5966 11.0578L57.567 11.0874L57.5375 11.117V11.1465L57.5079 11.1761L57.4784 11.2057L57.4488 11.2352L57.4192 11.2648L57.3896 11.2944L57.3601 11.3535L57.3305 11.3831L57.3009 11.4422L57.2714 11.4718L57.2418 11.5309L57.2122 11.59L57.1827 11.6196V11.6787V11.7083V11.7379V11.7674V11.797V11.8266V11.8857L57.1531 11.9153L57.1235 11.9448L57.094 11.9744L57.0644 12.004L57.0348 12.0335L57.0053 12.0631H56.9757L56.9166 12.0335V12.0631L56.887 12.0927H56.8574H56.8279V12.0631L56.7983 12.1222L56.7687 12.1814L56.7392 12.2405L56.7096 12.2996L56.68 12.3588L56.6505 12.4179L56.6209 12.477L56.5913 12.5362L56.5618 12.5657V12.5953V12.6249V12.6544V12.684V12.7136V12.6544L56.5322 12.684V12.7136H56.5026V12.7432H56.4731L56.4435 12.7727H56.4139V12.8023H56.7096L56.68 12.8614L56.6505 12.9206L56.5913 12.9797L56.5618 13.0093L56.5026 13.0388L56.4731 13.0684L56.4139 13.098L56.3548 13.1571L56.2957 13.2458L56.2661 13.3345L56.2365 13.4232L56.207 13.5119V13.6006L56.2365 13.6893L56.2661 13.778L56.2957 13.8667L56.3252 13.8963V13.8371H56.3548L56.3844 13.8667L56.4139 13.8963V13.9258L56.4435 13.9554L56.4731 13.985L56.5026 14.0145L56.5322 14.0737V14.1032L56.5618 14.1328V14.1919V14.2215L56.5026 14.1919L56.4435 14.1624L56.3844 14.1328H56.3548L56.2957 14.1032L56.2661 14.0737L56.2365 14.0441L56.207 13.985L56.1774 13.9258L56.1478 13.8667L56.1183 13.8076L56.0887 13.7484L56.0591 13.6893L56.0296 13.6302L56 13.571L55.9704 13.5119L55.9113 13.4232L55.8226 13.3345L55.7635 13.2458L55.6748 13.1571L55.6156 13.0684L55.5269 12.9797L55.4382 12.891L55.3791 12.8023H55.4087V12.8319L55.3791 12.7432V12.6544L55.4087 12.5657L55.4382 12.477V12.3883V12.2996L55.4087 12.2109L55.3791 12.1518L55.3495 12.0927V12.0335L55.32 11.9744L55.2904 11.9153L55.2608 11.8561L55.2313 11.797L55.1721 11.7379L55.1426 11.7083H55.113L55.0834 11.6787H55.0539H55.0243H54.9947H54.9356L54.906 11.6492L54.8173 11.59L54.7582 11.5309L54.699 11.4422L54.6399 11.3535L54.5808 11.2648L54.5512 11.1761L54.5216 11.0874L54.4921 10.9987V10.9691L54.4625 10.9396V10.91V10.8804V10.8509V10.8213V10.7917V10.8804L54.4329 10.91V10.9396V10.9691H54.4034V10.9987V11.0283L54.3738 10.9987L54.3442 10.9691L54.3147 10.9396L54.2851 10.91L54.2555 10.8804V10.8509L54.226 10.8213L54.1964 10.7917L54.1668 10.7622L54.1373 10.703V10.6735L54.1077 10.6143V10.5848L54.1373 10.5256V10.4961V10.4665L54.1668 10.4369L54.1964 10.4074L54.226 10.3778L54.2555 10.3482L54.2851 10.3187L54.3147 10.2891L54.3442 10.2595L54.3738 10.23L54.4034 10.2004L54.4329 10.1708L54.4625 10.1412L54.4921 10.1117L54.5216 10.0821V10.0525V10.023V9.99341H54.4921L54.4625 9.96385L54.4329 9.93428L54.4034 9.90471H54.3738V9.87515L54.3442 9.84558V9.81601V9.78645V9.75688L54.3147 9.72731V9.69774V9.66818V9.63861V9.60904H56.0296V9.81601ZM54.4329 9.81601L54.4034 9.78645V9.75688V9.72731L54.3738 9.69774L54.3442 9.66818V9.69774L54.2851 9.66818L54.2555 9.63861L54.226 9.60904L54.1668 9.57948L54.1373 9.54991L54.0781 9.52034L54.0486 9.49077L53.9894 9.46121L53.9599 9.43164L53.9303 9.40207L53.9007 9.37251H53.8712L53.8416 9.34294L53.812 9.31337H53.7825L53.7529 9.2838H53.7233L53.6938 9.25424H53.6642L53.6346 9.22467L53.6051 9.1951L53.5164 9.16554L53.4277 9.13597L53.339 9.07684L53.2503 9.0177L53.1616 9.1064L53.0729 9.04727L52.9842 8.98813L52.8955 8.929L52.8659 8.89943L52.8363 8.86987V8.8403V8.81073V8.78117L52.8068 8.81073L52.7772 8.8403V8.86987V8.89943L52.7181 8.8403L52.6885 8.81073L52.6589 8.7516L52.6294 8.69246L52.5998 8.63333L52.5702 8.5742L52.5407 8.51506L52.5111 8.45593V8.42636L52.4815 8.39679V8.36723V8.33766V8.30809L52.452 8.27853V8.24896V8.21939V8.16026V8.10112V8.04199L52.4815 7.98286V7.92372L52.5111 7.86459V7.80545L52.4815 7.74632H52.5702H52.5407V7.68718V7.62805V7.56892L52.5111 7.50978V7.62805V7.56892V7.50978L52.5407 7.45065L52.5702 7.42108L52.5998 7.39151L52.6294 7.36195L52.6589 7.33238L52.6885 7.30281L52.7181 7.27325L52.7476 7.24368L52.7772 7.21411L52.8068 7.18454L52.8363 7.15498L52.8955 7.12541L52.925 7.09584L52.9546 7.06628L52.9842 7.03671L53.0137 7.00714L53.0433 6.97757V7.03671V7.00714L53.0729 6.97757V6.94801V6.91844L53.1024 6.88887V6.85931L53.132 6.82974L53.1616 6.80017H53.1911H53.2207H53.2503L53.2798 6.77061V6.74104V6.71147V6.6819V6.74104V6.71147V6.6819L53.2503 6.65234V6.62277H53.2798L53.339 6.5932L53.3981 6.56364L53.4277 6.53407L53.4572 6.5045L53.4868 6.44537V6.4158L53.4572 6.35667L53.4277 6.3271L53.3981 6.29753L53.3685 6.26797H53.339L53.3094 6.2384H53.2798H53.2503H53.2207L53.1911 6.26797L53.1616 6.29753L53.132 6.3271L53.1024 6.35667L53.0729 6.38623L53.0433 6.4158L53.0137 6.44537L52.9842 6.47493L52.9546 6.5045L52.925 6.47493L52.8955 6.44537L52.8659 6.4158L52.8363 6.38623H52.8068L52.7476 6.4158L52.6885 6.44537L52.6589 6.47493L52.5998 6.5045L52.5407 6.53407L52.4815 6.56364L52.452 6.5932L52.3928 6.62277L52.3633 6.65234H52.3337H52.2745H52.245H52.2154L52.1858 6.62277H52.1563L52.1267 6.5932L52.0971 6.56364L52.0676 6.53407L52.038 6.5045L52.0084 6.47493L51.9789 6.44537V6.4158L51.9493 6.38623V6.3271L52.0084 6.35667H52.0676H52.1267L52.1858 6.3271L52.2154 6.29753L52.2745 6.26797L52.3041 6.20883L52.3337 6.1497L52.3041 6.17926L52.2745 6.20883V6.2384V6.26797L52.3041 6.3271L52.3633 6.35667L52.3928 6.38623L52.4224 6.35667H52.452L52.4815 6.3271L52.5111 6.29753V6.2384L52.4815 6.17926L52.452 6.12013V6.061L52.4815 6.03143L52.5111 6.00186L52.5407 5.9723L52.5702 5.94273L52.6294 5.91316L52.6885 5.88359L52.7181 5.85403L52.7772 5.82446L52.8363 5.79489L52.8659 5.76533L52.925 5.73576L52.9842 5.70619L53.1024 5.64706L53.2207 5.61749L53.339 5.58792L53.4572 5.55836L53.5755 5.52879L53.6938 5.49922L53.7825 5.46966L53.9007 5.41052H53.9303L54.0486 5.55836L54.0781 5.52879L54.1077 5.49922H54.1373L54.1668 5.46966H54.1964V5.49922V5.52879V5.55836V5.58792L54.226 5.61749L54.2555 5.64706L54.2851 5.67663L54.3147 5.70619L54.3442 5.73576L54.3738 5.76533L54.4034 5.79489H54.4329L54.4625 5.82446L54.4921 5.79489L54.5216 5.76533L54.5512 5.73576L54.5808 5.70619L54.6103 5.67663L54.6399 5.64706L54.6695 5.61749H54.7286H54.7877H54.8469L54.906 5.58792H54.9652H55.0243L55.0834 5.55836L55.113 5.52879H55.1426H55.1721L55.2017 5.49922H55.2313H55.2608H55.2904L55.32 5.46966L55.3495 5.44009V5.46966L55.32 5.49922L55.2904 5.52879L55.2608 5.55836L55.2313 5.58792V5.61749V5.64706L55.2608 5.67663L55.2904 5.70619H55.32L55.3495 5.73576L55.3791 5.76533L55.4087 5.79489L55.4382 5.82446H55.4678L55.4974 5.85403V5.82446L55.4678 5.79489V5.76533V5.73576V5.70619V5.67663V5.64706V5.61749L55.4974 5.58792L55.5269 5.55836L55.5565 5.52879L55.5861 5.49922L55.6156 5.46966H55.6452L55.6748 5.44009L55.7043 5.41052H55.7339L55.7635 5.44009L55.793 5.46966L55.8226 5.49922L55.8522 5.52879L55.8817 5.55836V5.58792L55.9113 5.61749L55.9409 5.64706L56 5.67663L56.0591 5.70619H56.1183L56.1478 5.73576L56.207 5.76533L56.2365 5.79489L56.2661 5.82446L56.2957 5.85403L56.3252 5.88359V5.91316L56.3548 5.94273V5.9723V6.00186H56.3844H56.4139H56.4435H56.4731H56.5026H56.5322H56.5618H56.5913V5.9723H56.6209V5.94273L56.6505 5.91316L56.68 5.94273H56.7096V5.9723L56.7392 6.00186L56.7687 6.03143L56.7983 6.061H56.8279V5.85403H56.8574H56.887L56.9166 5.82446V5.79489L56.9461 5.76533L56.9757 5.73576L57.0053 5.70619H57.0348L57.0644 5.67663V5.64706H57.094L57.1235 5.61749L57.1531 5.58792L57.2122 5.55836L57.2418 5.52879L57.2714 5.49922L57.3009 5.46966H57.3601L57.4192 5.49922L57.5079 5.52879L57.567 5.55836L57.6558 5.58792L57.7445 5.64706L57.8332 5.70619L57.8923 5.73576L57.981 5.79489L58.0401 5.85403L58.0697 5.88359L58.0993 5.91316V5.94273V5.9723V6.00186V6.03143V6.061L58.0697 6.09056V6.12013L58.0401 6.1497L58.0106 6.17926L57.981 6.20883L57.9514 6.2384L57.9219 6.26797H57.8923L57.8627 6.29753L57.8332 6.3271L57.8036 6.35667V6.38623V6.4158V6.44537V6.47493V6.5045L57.774 6.53407V6.56364V6.5932L57.7445 6.62277V6.44537L57.7149 6.47493V6.5045L57.6853 6.53407L57.6558 6.56364H57.6262H57.5966V6.5932L57.567 6.62277L57.5966 6.65234V6.6819V6.71147L57.6262 6.74104V6.77061H57.5966L57.567 6.80017H57.5375V6.82974H57.5079L57.4784 6.85931V6.88887V6.91844V6.94801V6.74104H57.4488V6.77061H57.0053V6.74104L56.9757 6.77061L57.0053 6.80017V6.82974V6.85931L57.0348 6.88887V6.91844V6.94801L57.0053 6.97757H56.9757L57.0644 7.06628L57.094 7.12541L57.1235 7.15498V7.18454H57.094H57.0644L57.0348 7.21411L56.9757 7.24368L56.9166 7.27325H56.8574H56.7983L56.7392 7.24368H56.6505H56.5913H56.5322L56.5618 7.27325V7.30281V7.33238H56.5913V7.36195V7.39151V7.42108V7.45065L56.5618 7.48022L56.5322 7.50978L56.5026 7.53935H56.4731L56.4139 7.56892L56.3548 7.59848L56.3252 7.62805L56.2661 7.65762H56.207H56.1478L56.1183 7.62805L56.0591 7.59848V7.56892V7.33238V7.30281V7.27325L56.0296 7.24368V7.21411L56 7.24368H55.9704V7.27325V7.30281V7.33238V7.36195V7.39151V7.42108L55.9409 7.45065L55.9113 7.48022L55.8817 7.50978L55.8522 7.53935L55.8226 7.56892L55.793 7.59848L55.7635 7.62805L55.7339 7.65762L55.7043 7.71675L55.6748 7.74632L55.6452 7.77589H55.6156L55.5861 7.80545H55.5565H55.4974L55.4678 7.83502L55.4382 7.86459V7.89415L55.4087 7.92372V7.95329V7.98286V8.01242V8.04199L55.3791 8.07156H55.3495L55.2904 8.10112L55.2608 8.13069L55.2313 8.16026L55.2017 8.18982L55.1721 8.21939V8.24896V8.27853V8.33766H55.1426V8.36723H55.113H55.0834L55.0539 8.39679V8.42636H55.0243H54.9947H54.9652L54.9356 8.45593H54.906L54.8765 8.4855L54.9356 8.21939L54.906 8.24896L54.8765 8.27853L54.8469 8.30809L54.8173 8.33766V8.36723L54.7877 8.39679V8.42636L54.7582 8.45593L54.7286 8.4855L54.699 8.51506V8.54463V8.5742V8.51506L54.6695 8.54463L54.6399 8.5742L54.6103 8.60376H54.5808L54.5512 8.5742L54.5216 8.54463L54.4921 8.51506L54.4625 8.4855L54.4329 8.45593L54.4034 8.42636L54.3738 8.39679L54.3442 8.36723L54.3147 8.33766L54.2851 8.30809L54.1964 8.33766L54.1077 8.36723L54.019 8.39679H54.0486H53.9599L53.8712 8.42636L53.812 8.45593L53.7233 8.4855L53.6938 8.51506V8.54463L53.6642 8.5742V8.60376L53.6346 8.63333V8.6629L53.6051 8.69246V8.72203L53.5755 8.7516V8.78117V8.81073V8.8403L53.6051 8.86987L53.6346 8.8403L53.6642 8.81073H53.6938L53.7233 8.78117H53.7529L53.7825 8.7516L53.812 8.72203L53.8416 8.69246L53.8712 8.6629L53.9007 8.63333L53.9303 8.60376H53.9599L53.9894 8.5742L54.019 8.60376L54.0486 8.63333L54.0781 8.6629L54.1077 8.69246V8.7516V8.81073L54.0781 8.8403L54.0486 8.89943V8.95857L54.019 8.98813L54.0486 9.04727V9.1064L54.0781 9.13597L54.1077 9.16554H54.1373H54.1668H54.1964L54.226 9.13597H54.2555H54.2851V9.16554V9.1951V9.22467V9.25424L54.3147 9.2838V9.31337L54.3442 9.34294H54.3147H54.2851H54.2555V9.37251V9.40207V9.43164V9.46121L54.226 9.49077V9.40207V9.43164V9.46121L54.2555 9.52034L54.2851 9.57948L54.3147 9.60904L54.3738 9.63861L54.4034 9.66818L54.4625 9.69774H54.5216L54.5512 9.66818L54.5808 9.63861L54.6103 9.60904L54.6399 9.57948L54.6695 9.54991H54.699L54.7286 9.52034L54.7582 9.54991H54.7877V9.57948V9.60904V9.63861L54.8173 9.66818V9.69774H54.8469H54.8765H54.906H54.9356H54.9652V9.66818H54.9947L55.0243 9.63861H55.0539L55.1426 9.60904L55.2017 9.57948H55.2904L55.3791 9.54991L55.4382 9.57948H55.5269L55.5861 9.60904L55.6748 9.63861L55.7043 9.66818L55.7635 9.69774L55.8226 9.72731V9.69774L55.8817 9.72731L55.9113 9.75688L55.9704 9.78645L56.0296 9.81601H54.4329ZM57.3305 5.44009H57.3896H57.4192H57.4488L57.4784 5.41052H57.5079L57.5375 5.38095H57.567L57.5966 5.35139L57.6262 5.32182L57.6558 5.29225L57.6853 5.26269L57.7149 5.23312L57.7445 5.20355L57.8036 5.17399L57.8332 5.14442H57.8627L57.8923 5.11485L57.9219 5.08528L57.9514 5.05572H57.981H58.0106H58.0401H58.0697H58.0993L58.1584 5.08528L58.2175 5.11485L58.2767 5.14442L58.3358 5.17399H58.3949H58.4541H58.5132L58.5723 5.14442H58.6315L58.6906 5.11485L58.7497 5.14442H58.7793H58.8384H58.8976H58.9567L58.9863 5.11485H59.0454L59.1045 5.08528L59.1341 5.05572L59.1932 5.02615L59.2228 4.99658H59.2819H59.3115L59.3411 5.02615H59.3706L59.4002 5.05572V5.08528L59.4298 5.11485V5.26269L59.4593 5.29225L59.4889 5.32182L59.5185 5.35139L59.5776 5.38095L59.6367 5.44009L59.6959 5.46966L59.7254 5.49922L59.755 5.52879L59.7846 5.55836H59.755H59.7254H59.6959H59.6663L59.6367 5.58792H59.6072L59.548 5.64706L59.4889 5.70619L59.4298 5.73576L59.3706 5.76533L59.3115 5.79489L59.2228 5.82446L59.1637 5.85403L59.1045 5.88359H59.075V5.91316V5.94273V5.9723V6.00186H59.0454L58.9567 6.03143L58.8976 6.061L58.8089 6.09056L58.7202 6.12013L58.661 6.1497L58.5723 6.17926L58.5132 6.20883L58.4245 6.2384L58.3949 6.26797L58.3654 6.29753L58.3358 6.35667L58.3062 6.38623L58.2767 6.44537L58.2471 6.5045L58.2175 6.53407L58.1584 6.56364H58.1288L58.0993 6.5932H58.0697L58.0401 6.56364L58.0106 6.53407L57.981 6.5045L57.9514 6.47493L57.9219 6.44537V6.4158L57.8923 6.38623V6.35667L57.8627 6.3271V6.29753L57.8332 6.26797L57.8036 6.2384L57.774 6.20883V6.17926V6.1497V6.12013V6.09056V6.061L57.8036 6.03143V6.00186V5.9723H57.774H57.7445V5.94273V5.85403V5.82446H57.7149V5.79489V5.76533L57.7445 5.73576L57.774 5.70619L57.8036 5.64706L57.8332 5.61749L57.8627 5.58792L57.8923 5.55836L57.9219 5.52879L57.9514 5.49922V5.46966L57.981 5.44009V5.41052V5.38095L57.9514 5.35139L57.8627 5.32182H57.774H57.6853H57.5966H57.5079H57.4192H57.3305L57.2418 5.29225H57.3305V5.44009ZM59.3115 6.00186H59.2819H59.2524H59.2228H59.1932H59.1637L59.1341 6.03143L59.1045 6.061L59.075 6.09056V6.12013V6.1497V6.17926V6.20883V6.1497L59.1045 6.12013L59.1341 6.09056H59.1637H59.1932H59.2228H59.2524L59.2819 6.061L59.3115 6.03143L59.3411 6.00186V5.9723V5.94273L59.3115 5.91316V6.00186ZM59.4298 6.6819L59.4002 6.71147L59.3706 6.74104H59.3411L59.3115 6.77061V6.80017L59.3411 6.82974V6.85931L59.3706 6.88887L59.4002 6.91844L59.4298 6.94801L59.4593 6.97757L59.4889 7.00714L59.5185 7.03671H59.548V7.00714V6.97757L59.5185 6.94801V6.88887L59.4889 6.82974V6.74104L59.4593 6.71147V6.6819H59.4298ZM59.6367 6.62277V6.5932H59.6072H59.5776H59.548V6.62277L59.5185 6.5932V6.65234L59.4889 6.6819V6.74104L59.5185 6.80017V6.82974V6.88887L59.548 6.91844V6.94801L59.5776 6.97757L59.6072 7.00714L59.6367 7.03671L59.6663 7.06628L59.6959 7.09584L59.7254 7.12541L59.755 7.09584V7.06628V7.00714V6.94801L59.7254 6.88887L59.6959 6.82974L59.6663 6.77061L59.6367 6.71147L59.6072 6.65234L59.6367 6.62277ZM65.4023 9.84558L65.3728 9.87515L65.3432 9.90471V9.93428V9.96385L65.3728 9.99341V10.023L65.4023 10.0525L65.3728 10.0821H65.4615L65.5206 10.1117V10.1412L65.491 10.1708V10.1412L65.5206 10.1117H65.5502L65.5797 10.0821H65.6093L65.6389 10.0525H65.6684V10.023V9.99341L65.6389 9.96385L65.6093 9.93428L65.5797 9.90471L65.5502 9.87515L65.5206 9.84558L65.491 9.81601L65.4615 9.78645L65.4023 9.84558L65.3728 9.81601H65.3432V9.84558V9.87515V9.90471L65.4023 9.84558ZM67.6494 8.04199V7.98286V7.92372L67.6198 7.89415L67.5903 7.86459L67.5311 7.80545L67.472 7.77589L67.4424 7.74632L67.4129 7.68718L67.3833 7.65762V7.62805V7.59848H67.4129V7.56892V7.53935H67.4424H67.472V7.50978H67.5016V7.48022L67.472 7.45065L67.5016 7.42108V7.39151V7.36195H67.5311V7.33238L67.5607 7.30281V7.27325V7.24368V7.21411H67.5903H67.6198L67.6494 7.18454L67.679 7.15498V7.33238V7.30281L67.6494 7.27325L67.6198 7.24368L67.5903 7.21411L67.5607 7.18454L67.5311 7.15498L67.5016 7.12541L67.472 7.09584L67.4424 7.06628L67.4129 7.03671L67.3833 7.00714L67.3537 6.94801L67.2946 6.91844L67.2355 6.88887L67.1763 6.85931L67.1172 6.82974L67.0581 6.80017L66.9989 6.77061H66.9694H66.9398H66.9102H66.8807H66.8511H66.8215V6.74104H66.792H66.7624L66.7328 6.71147V6.6819V6.65234V6.62277L66.7624 6.5932L66.8215 6.53407L66.9102 6.5045L66.9989 6.47493H67.0876L67.1763 6.5045L67.265 6.53407L67.3537 6.56364L67.4424 6.62277L67.472 6.65234L67.5016 6.6819L67.5311 6.71147L67.5607 6.74104L67.5903 6.77061L67.6198 6.80017L67.6494 6.82974L67.679 6.85931H67.7085L67.7381 6.88887L67.7677 6.91844H67.7972H67.8268L67.8564 6.94801L67.886 6.91844H67.9155V6.88887V6.85931V6.82974V6.80017L67.886 6.77061V6.74104L67.8564 6.71147L67.8268 6.6819L67.7677 6.65234L67.7085 6.62277L67.6494 6.5932L67.5903 6.56364L67.5607 6.53407L67.5016 6.47493L67.472 6.4158L67.4424 6.38623V6.35667L67.472 6.3271V6.29753L67.5016 6.26797L67.5311 6.2384L67.5607 6.20883V6.17926L67.5903 6.12013L67.5607 6.09056L67.5311 6.061L67.472 6.03143H67.4129L67.3537 6.1497L67.2946 6.12013H67.2355L67.1763 6.09056L67.1172 6.061L67.0285 6.03143H66.9694L66.9102 6.00186H66.8511L66.7624 5.9723L66.7033 5.94273L66.5554 5.91316L66.4372 5.88359L66.2893 5.85403L66.1711 5.82446L66.0232 5.79489L65.8754 5.73576L65.7571 5.67663L65.6389 5.61749H65.5797L65.5502 5.58792L65.5206 5.55836L65.491 5.52879H65.4615V5.49922L65.4319 5.46966V5.49922V5.52879V5.55836L65.4615 5.58792V5.61749V5.64706L65.3728 5.70619H65.2841L65.1953 5.67663L65.1066 5.64706L65.0179 5.61749L64.9292 5.58792H64.8405V5.61749H64.8701V5.64706H64.8997V5.67663L64.811 5.70619H64.7223L64.6336 5.73576L64.5449 5.70619L64.4562 5.67663L64.3675 5.64706L64.2788 5.61749L64.2196 5.55836L64.1309 5.52879H64.0718H64.0127L63.924 5.55836L63.8353 5.58792H63.7761H63.6874L63.6283 5.55836L63.5987 5.52879L63.5396 5.49922L63.51 5.46966L63.4805 5.44009L63.4213 5.41052L63.3918 5.38095L63.3326 5.35139L63.3031 5.32182L63.2144 5.29225H63.1257L63.037 5.32182L62.9483 5.35139L62.8891 5.38095L62.8004 5.41052L62.7117 5.44009L62.623 5.46966V5.49922V5.52879V5.55836V5.58792L62.5343 5.64706L62.4456 5.67663L62.3569 5.70619L62.2682 5.73576L62.1795 5.76533L62.3273 5.85403L62.2386 5.88359L62.1499 5.91316H62.0908L62.0612 5.94273L62.0317 5.9723L61.9725 6.00186L61.943 6.03143L61.9134 6.061L61.8838 6.09056L61.8543 6.12013H61.8247H61.7951H61.736L61.7064 6.1497L61.6769 6.17926L61.6473 6.20883L61.6177 6.2384L61.5586 6.20883L61.529 6.17926L61.4995 6.1497L61.4403 6.09056L61.4108 6.061L61.3812 6.03143L61.3221 6.00186H61.2629L61.2334 5.9723L61.2038 5.94273L61.1447 5.91316L61.1151 5.88359L61.0855 5.85403L61.056 5.82446L61.0264 5.79489L60.9968 5.76533V5.79489H60.9673H60.9377H60.9081L60.8786 5.82446H60.849L60.8194 5.85403L60.7899 5.88359L60.7603 5.91316L60.7307 5.94273L60.7012 5.9723L60.6716 6.00186L60.642 6.03143L60.6125 6.061L60.5829 6.09056L60.5533 6.12013L60.5238 6.1497L60.4942 6.17926L60.4646 6.2384L60.4351 6.29753L60.4055 6.35667L60.3464 6.4158L60.2872 6.47493L60.2281 6.53407L60.1394 6.56364L60.0507 6.5932H59.962V6.62277V6.65234L59.9324 6.6819V6.44537H59.9028H59.8733V6.47493V6.5045V6.53407H59.9028V6.56364L59.9324 6.5932H59.962H59.9916L60.0211 6.62277H60.0507H60.0802L60.1098 6.65234L60.1394 6.6819V6.65234H60.169H60.1985V6.62277V6.5932H60.2281H60.2577L60.2872 6.6819L60.3168 6.74104L60.3464 6.80017V6.85931V6.88887V6.91844H60.3168V6.88887L60.3464 6.91844H60.3759L60.4055 6.88887H60.4351L60.4646 6.85931L60.4942 6.82974H60.5238L60.5533 6.80017L60.5829 6.77061L60.6125 6.74104L60.642 6.71147V6.6819V6.65234L60.6716 6.62277V6.5932L60.7012 6.56364V6.53407L60.7307 6.5045V6.44537L60.7603 6.4158L60.7899 6.38623L60.8194 6.35667L60.8786 6.38623L60.9081 6.4158L60.9377 6.44537L60.9673 6.5045L60.9968 6.53407L61.0264 6.5932H60.9673L60.9081 6.62277L60.8786 6.65234L60.8194 6.6819L60.7603 6.71147L60.7307 6.74104L60.6716 6.77061L60.642 6.80017V6.82974V6.85931V6.74104L60.5829 6.77061L60.5533 6.80017H60.5238L60.4942 6.82974L60.4646 6.85931L60.4351 6.88887L60.4055 6.91844L60.3759 6.94801V6.97757V7.00714V7.03671V7.06628V7.09584L60.3168 7.12541L60.2577 7.15498H59.962H59.9028L59.8437 7.18454L59.8141 7.21411L59.7846 7.24368L59.755 7.27325L59.7254 7.36195L59.6959 7.42108L59.6367 7.48022L59.548 7.50978L59.4889 7.53935L59.4002 7.59848L59.3411 7.62805L59.2819 7.68718L59.2524 7.71675V7.77589L59.2228 7.83502V7.62805V7.65762L59.2524 7.71675V7.77589V7.80545L59.2819 7.83502V7.86459L59.3115 7.89415H59.3411L59.3706 7.92372L59.4002 7.95329L59.4298 7.98286V7.92372H59.4593H59.5185L59.548 7.95329H59.6072H59.6367H59.6663H59.7254L59.755 7.92372H59.7846V7.89415V7.86459L59.8437 7.83502L59.9028 7.80545L59.9324 7.77589L59.962 7.74632L59.9916 7.68718L60.0211 7.65762L60.0507 7.59848L60.0802 7.56892V7.53935H60.1098H60.1394H60.169H60.1985L60.2577 7.50978L60.2872 7.48022L60.3168 7.45065L60.3759 7.42108L60.4055 7.39151H60.4351H60.4646L60.4942 7.42108L60.5238 7.45065L60.5533 7.48022L60.5829 7.50978L60.6125 7.53935L60.642 7.56892L60.6716 7.59848L60.7012 7.62805L60.7307 7.65762V7.68718H60.7603H60.7899H60.8194H60.849H60.8786H60.9081L60.9377 7.71675L60.9673 7.74632L60.9968 7.77589V7.80545L61.0264 7.83502H61.056V7.86459L61.0855 7.89415H61.1151H61.1447L61.1742 7.92372H61.2038L61.2334 7.95329H61.2629H61.2925H61.3221H61.3516H61.3812V7.92372V7.89415V7.86459V7.83502H61.4108H61.4403H61.4699V7.80545H61.4995V7.77589V7.74632H61.529H61.5586H61.5882H61.6177L61.6473 7.77589H61.6769L61.7064 7.80545H61.736L61.7656 7.83502H61.7951L61.8247 7.86459L61.8543 7.89415L61.8838 7.92372L61.9134 7.95329V7.98286L61.943 8.01242L61.9725 8.04199L62.0021 8.07156L62.0317 8.10112H62.0612H62.0908H62.1499L62.1795 8.07156H62.2091H62.2386L62.2682 8.10112L62.2978 8.16026V8.21939H62.0317V8.27853V8.33766V8.39679L62.0612 8.45593L62.0908 8.51506L62.1499 8.60376L62.2386 8.69246L62.3273 8.78117L62.416 8.86987L62.5048 8.929L62.5934 8.98813L62.6821 9.04727L62.8004 9.07684L62.83 9.1064L62.8596 9.13597V9.16554V9.22467V9.2838L62.8891 9.31337V9.34294L62.9187 9.37251L62.9483 9.40207H62.9187L62.9778 9.43164L63.0665 9.46121H63.1257L63.2144 9.49077H63.2735L63.3622 9.46121L63.4213 9.43164L63.51 9.40207L63.5396 9.37251H63.5692L63.5987 9.34294L63.6283 9.31337L63.6579 9.2838H63.6874V9.25424L63.7466 9.22467L63.7761 9.1951L63.8057 9.16554L63.8353 9.13597L63.8648 9.1064L63.8944 9.07684L63.924 9.04727L63.9535 9.0177L63.9831 8.95857L64.0127 8.89943V8.8403L63.9831 8.78117V8.72203L63.9535 8.6629L63.924 8.60376L63.8944 8.54463H63.9535L64.0127 8.5742L64.0718 8.60376L64.1309 8.63333L64.1014 8.81073H64.1605L64.2196 8.8403H64.3083L64.3675 8.86987L64.397 8.89943H64.4266L64.4562 8.929H64.4857L64.5153 8.95857H64.5449L64.5744 8.98813V9.0177L64.6631 9.13597L64.7223 9.25424L64.7814 9.37251L64.8405 9.49077L64.8997 9.60904L64.9588 9.72731L65.0179 9.84558L65.0771 9.96385H65.1066H65.1362H65.1658H65.1953H65.2249H65.2545H65.2841V9.93428V9.90471V9.87515V9.84558H65.3136V9.81601V9.78645L65.3432 9.72731L65.3728 9.66818L65.4023 9.60904L65.4319 9.54991L65.4615 9.49077L65.491 9.43164L65.5206 9.37251L65.5502 9.31337L65.5797 9.2838L65.6093 9.25424L65.6389 9.22467H65.6684L65.698 9.1951H65.7276L65.7571 9.16554H65.7867V9.13597V9.1064L65.8163 9.07684V9.04727H65.8458L65.8754 9.0177L65.905 8.98813L65.9345 8.95857H65.9641H65.9937V9.1064L66.0232 9.13597L66.0528 9.16554L66.0824 9.1951L66.1119 9.22467L66.1415 9.25424H66.1711H66.2006H66.2302L66.2598 9.2838H66.2893H66.3189L66.3485 9.31337L66.378 9.34294L66.4076 9.37251L66.4372 9.40207H66.4667L66.4963 9.43164L66.5259 9.46121L66.5554 9.49077L66.585 9.52034L66.6146 9.60904L66.6441 9.69774L66.6737 9.75688L66.7033 9.84558L66.7328 9.93428L66.7624 10.023L66.792 10.1117L66.8215 10.2004H66.8511H66.8807H66.9102H66.9398H66.9694L66.9989 10.23H67.0285L67.0581 10.2891L67.0876 10.3187L67.1172 10.3482L67.1468 10.3778L67.1763 10.4074L67.2059 10.4369L67.2355 10.4665L67.265 10.4961L67.2946 10.5256H67.3242L67.3537 10.5552L67.3833 10.5848V10.6143V10.6439L67.4129 10.6143L67.4424 10.5848V10.2891V10.2595L67.4129 10.23V10.2004L67.3833 10.1412L67.3537 10.0821L67.3242 10.023L67.2946 9.96385L67.265 9.90471L67.2355 9.84558V9.78645L67.2059 9.72731L67.265 9.75688H67.3242L67.3833 9.78645L67.4129 9.81601H67.472L67.5311 9.84558H67.5903H67.6494V9.75688V9.69774V9.63861V9.57948V9.52034V9.46121L67.6198 9.40207L67.5903 9.34294V9.31337L67.5607 9.2838L67.5311 9.25424L67.5016 9.22467L67.472 9.1951L67.4424 9.16554L67.4129 9.13597L67.3833 9.1064L67.3537 9.07684V9.1064L67.3242 9.07684V9.04727V9.0177V8.98813L67.3537 8.95857V8.929L67.3833 8.89943L67.4424 8.86987H67.472H67.5311L67.5903 8.89943H67.6494L67.679 8.929H67.7381L67.7677 8.89943L67.7972 8.86987L67.8268 8.8403V8.81073L67.8564 8.78117L67.886 8.7516L67.9155 8.72203V8.81073L67.9451 8.78117L67.9747 8.72203L68.0042 8.6629V8.60376L68.0338 8.51506V8.45593L68.0042 8.36723L67.9747 8.30809L67.9451 8.24896L67.886 8.18982L67.7972 8.16026L67.7085 8.10112L67.6494 8.07156L67.5903 8.01242L67.5607 7.95329V7.89415L67.5903 7.86459H67.6198L67.6494 7.83502H67.679L67.7085 7.86459L67.7677 7.89415L67.7972 7.92372H67.3537L67.3833 7.95329L67.4129 7.98286H67.4424L67.472 8.01242L67.5016 8.04199L67.5311 8.07156H67.5607L67.5903 8.10112H67.6198H67.6494L67.679 8.13069H67.7085H67.7381H67.6494V8.04199ZM59.8437 7.92372H59.7846L59.7254 7.89415H59.6663H59.6072L59.548 7.92372L59.4889 7.95329L59.4298 7.98286L59.3706 8.01242L59.3115 8.04199L59.2819 8.10112L59.2524 8.13069L59.2228 8.16026L59.1932 8.18982L59.1637 8.24896L59.1341 8.27853L59.1045 8.33766L59.0158 8.42636L58.9863 8.51506L58.9567 8.60376L58.9271 8.69246L58.8976 8.78117L58.868 8.86987L58.8384 8.95857L58.8089 9.04727L58.7793 9.1064L58.7497 9.13597L58.7202 9.16554L58.6906 9.22467L58.661 9.25424V9.31337L58.6315 9.37251L58.661 9.40207L58.6906 9.43164L58.7202 9.46121L58.7497 9.49077L58.7793 9.52034L58.8089 9.54991L58.8384 9.57948L58.868 9.60904L58.8976 9.63861V9.66818L58.9271 9.69774V9.72731V9.75688L58.9567 9.78645V9.81601L58.9863 9.84558V9.87515L59.075 9.93428L59.1637 9.99341L59.2524 10.0525L59.3411 10.0821L59.4298 10.1117L59.548 10.1412L59.6367 10.1708L59.755 10.2004L59.8437 10.23L59.9028 10.2004L59.9916 10.1708L60.0507 10.1412L60.1098 10.1117L60.1985 10.0821L60.2577 10.0525L60.3168 10.023L60.3464 9.99341H60.3759H60.4055L60.4351 10.023L60.4646 10.0525L60.4942 10.0821L60.5238 10.1117L60.5533 10.1412V10.1708V10.2004V10.23V10.2595V10.2891V10.3187L60.5829 10.3778L60.6125 10.4665L60.642 10.5552L60.6716 10.6143L60.7012 10.703L60.7307 10.7622L60.7603 10.8509L60.7899 10.9396L60.8194 10.9987L60.849 11.0578L60.8786 11.117V11.1761V11.2352L60.849 11.2944L60.8194 11.3535L60.7899 11.4126L60.7603 11.4422L60.7307 11.5013L60.7012 11.5605L60.6716 11.6196L60.642 11.6787V11.7379V11.7674V11.8266L60.6716 11.8857L60.7012 11.9153L60.7307 11.9448L60.7603 12.004L60.7899 12.0335L60.8194 12.0631L60.849 12.1222L60.8786 12.1814V12.2701L60.9081 12.3292V12.4179V12.5066L60.9377 12.5953V12.6544L60.9673 12.7432L60.9968 12.8023L61.0264 12.8319L61.056 12.8614L61.0855 12.891L61.1151 12.9206L61.1447 12.9501L61.1742 12.9797L61.2038 13.0093L61.2334 13.0388L61.2629 13.0684L61.2925 13.098L61.3221 13.1275H61.3516H61.4108H61.4403H61.4699H61.4995V13.098H61.529V13.0684L61.5586 13.0388H61.5882H61.6177V12.9501H61.6473L61.6769 12.9206H61.7064V12.891H61.736L61.7951 12.8614L61.8543 12.8023L61.8838 12.7727L61.943 12.7432L61.9725 12.7136L62.0317 12.6544L62.0612 12.6249L62.1204 12.5953L62.1499 12.5657L62.1795 12.5362L62.2091 12.5066L62.2386 12.477L62.2682 12.4475L62.2978 12.4179L62.3273 12.3883L62.3569 12.3588V12.3292V12.2996V12.2701V12.2405L62.3865 12.2109V12.1814L62.416 12.1518L62.4456 12.1222V12.0927L62.4752 12.0631V12.0335L62.5048 12.004V12.0631L62.5343 12.0335L62.5639 12.004L62.623 11.9744L62.6526 11.9448L62.6821 11.9153L62.7117 11.8857L62.7413 11.8266L62.7709 11.797L62.8004 11.7379L62.83 11.6787L62.8596 11.6196V11.5605L62.8891 11.5013V11.4422L62.8596 11.3831V11.3239L62.83 11.2648V11.2352V11.2057V11.1761L62.8004 11.1465V11.117V11.0874L62.7709 11.0578L62.7413 11.0283V10.9987V10.9691V10.91V10.8804V10.8213V10.7917H62.7709H62.8004L62.83 10.7622L62.8596 10.7326L62.8891 10.703L62.9187 10.6735L62.9778 10.6143L63.0074 10.5552L63.0665 10.4961L63.1257 10.4665L63.1848 10.4074L63.2144 10.3482L63.2439 10.2891L63.2735 10.23L63.3031 10.2004L63.3326 10.1412L63.3622 10.1117L63.3918 10.0525L63.4213 10.023L63.4509 9.99341L63.4805 9.93428L63.51 9.90471V9.99341V9.96385L63.5396 9.93428V9.90471V9.87515L63.5692 9.84558L63.5987 9.81601L63.6283 9.78645L63.6579 9.75688L63.6874 9.69774L63.717 9.66818V9.60904L63.6874 9.57948L63.6579 9.54991L63.6283 9.52034H63.5987H63.5692H63.5396H63.51L63.4805 9.49077L63.4213 9.46121L63.3918 9.43164L63.3622 9.40207L63.3326 9.37251L63.3031 9.34294L63.2735 9.31337L63.2439 9.2838L63.2144 9.25424L63.1257 9.1951L63.037 9.13597L62.9483 9.07684L62.8891 9.0177L62.8004 8.95857L62.7413 8.89943L62.7117 8.81073L62.6821 8.7516L62.6526 8.69246L62.623 8.63333L62.5934 8.5742L62.5639 8.54463L62.5343 8.4855L62.5048 8.45593L62.4752 8.39679L62.4456 8.36723L62.416 8.33766V8.30809L62.3865 8.27853L62.3569 8.24896L62.3273 8.21939H62.2978L62.2682 8.18982H62.2978H62.3273H62.3569L62.3865 8.16026H62.416L62.3865 8.10112L62.3569 8.04199L62.3273 8.01242V7.95329L62.2978 7.89415L62.2682 7.83502V7.77589L62.2386 7.71675L62.1499 7.77589L62.0612 7.80545H61.736L61.6473 7.77589L61.5586 7.74632L61.4403 7.71675L61.3516 7.68718L61.2629 7.71675H61.2334L61.2629 7.74632V7.77589V7.80545L61.2334 7.83502H61.2038L61.1742 7.80545H61.1447V7.77589L61.1151 7.74632H61.0855L61.056 7.71675H61.0264H60.9968H60.9673H60.9377H60.9081H60.849L60.8194 7.68718L60.7899 7.65762V7.62805V7.59848V7.56892V7.53935V7.50978L60.7603 7.48022V7.45065L60.7307 7.42108V7.92372L60.7012 7.89415L60.6716 7.86459L60.642 7.83502L60.6125 7.80545L60.5829 7.77589L60.5533 7.74632L60.5238 7.71675L60.4942 7.68718L60.4646 7.65762L60.4351 7.62805L60.4055 7.59848H60.3759H60.3464L60.3168 7.56892H60.2872H60.2577L60.2281 7.59848H60.1985H60.169L60.1098 7.62805L60.0507 7.65762L60.0211 7.68718L59.9916 7.71675L59.9324 7.74632L59.8733 7.77589L59.8437 7.80545L59.7846 7.83502H59.755H59.7254L59.6959 7.80545H59.6663L59.8437 7.92372ZM63.2439 11.4718L63.2144 11.4422H63.1848H63.1552L63.1257 11.5013L63.0961 11.5309L63.0665 11.5605L63.037 11.59L63.0074 11.6196L62.9483 11.6492H62.9187H62.8596V11.6787V11.7379V11.7674L62.83 11.797L62.8004 11.8266L62.7709 11.8561L62.7413 11.8857V11.9153V11.9448V11.9744V12.004V12.0335H62.7117L62.6821 12.0927L62.6526 12.1518V12.2109V12.2701L62.6821 12.3292L62.7117 12.3883L62.7413 12.4475L62.8004 12.5066L62.83 12.5362H62.8596H62.8891L62.9187 12.5066L62.9483 12.477L62.9778 12.4475L63.0074 12.4179V12.3883L63.037 12.3292L63.0665 12.2701L63.0961 12.2109L63.1257 12.1518L63.1552 12.0927L63.1848 12.0335L63.2144 11.9744L63.2439 11.9153V11.8857V11.8561V11.8266H63.2735V11.797H63.3031H63.3326H63.3622L63.3326 11.7674V11.7379V11.6787V11.6492V11.59V11.5309V11.4718H63.2439ZM54.4034 8.72203L54.4329 8.69246L54.4625 8.6629H54.5216L54.5512 8.63333H54.6103L54.6399 8.6629L54.699 8.69246L54.7286 8.72203L54.7877 8.7516L54.8173 8.78117L54.8765 8.81073L54.9356 8.8403L54.9652 8.89943L54.9947 8.929L55.0243 8.98813L55.0539 9.04727L55.0834 9.07684L55.0539 9.1064H55.0243V9.13597H54.9947H54.9652L54.9356 9.1064H54.906H54.8765L54.8469 9.07684L54.8173 9.04727L54.7877 9.0177L54.7582 8.98813L54.7286 8.95857L54.699 8.929L54.6695 8.89943H54.6399H54.6103H54.5808H54.5512H54.5216V8.86987V8.8403V8.81073V8.78117L54.4921 8.7516V8.81073H54.4625L54.4329 8.78117H54.6399H54.6103H54.5808H54.5512H54.5216H54.4921H54.4625L54.4329 8.7516H54.4034L54.3738 8.72203L54.3442 8.69246L54.4034 8.72203ZM67.886 7.39151L67.8564 7.36195L67.8268 7.39151V7.42108V7.45065V7.48022V7.50978V7.53935L67.9451 7.59848L68.0042 7.65762L68.0338 7.68718H68.0042H67.9747L67.9451 7.65762V7.62805L67.9747 7.59848V7.56892V7.53935L67.9451 7.50978L67.9155 7.48022L67.886 7.45065L67.8564 7.42108L67.886 7.39151ZM68.2408 7.74632L68.3295 7.71675L68.3886 7.68718H68.4182H68.4477L68.4182 7.74632L68.359 7.80545L68.2703 7.86459L68.2112 7.89415H68.1816V7.86459L68.2112 7.80545L68.2408 7.71675V7.74632V7.77589V7.80545V7.83502V7.86459V7.89415H68.2703L68.2999 7.92372V7.95329V7.98286L68.2703 8.01242V7.92372V7.95329L68.2999 7.98286H68.3295H68.359H68.3886L68.4182 7.95329V7.92372V7.89415V7.86459V7.83502L68.3886 7.80545V7.77589L68.359 7.74632H68.2408ZM68.0929 8.07156L68.0634 8.10112H68.0338V8.13069H68.0042L68.0338 8.16026L68.0634 8.18982L68.0929 8.21939L68.1225 8.24896L68.1521 8.27853L68.1816 8.30809V8.33766L68.2112 8.30809H68.1816V8.21939L68.1521 8.18982V8.16026H68.1225V8.13069V8.10112V8.07156H68.0929ZM67.9155 9.13597L67.886 9.1064L67.8564 9.13597V9.16554V9.1951V9.22467V9.25424L67.886 9.2838L67.9155 9.31337L67.9451 9.34294H67.9747L67.9451 9.40207L67.9747 9.43164V9.46121V9.52034L68.0042 9.54991L68.0338 9.60904V9.63861L68.0634 9.66818V9.69774L68.0929 9.72731L68.1225 9.75688L68.1521 9.78645L68.1816 9.81601H68.2112H68.2408H68.2703V9.78645V9.75688V9.72731V9.66818V9.60904H68.2408V9.57948H68.2112V9.54991L68.1816 9.52034V9.40207V9.34294L68.1521 9.31337L68.1225 9.25424L68.0929 9.22467L68.0634 9.16554L68.0338 9.13597H67.9155ZM68.3295 9.69774L68.2999 9.72731L68.2703 9.78645V9.81601V9.84558H68.2999L68.3295 9.81601V9.78645H68.359H68.3886V9.75688V9.72731V9.69774V9.66818L68.3295 9.69774ZM67.9747 9.81601L67.9451 9.78645L67.9155 9.75688H67.886V9.78645H67.8564V9.81601V9.84558V9.87515V9.90471H67.886L67.9155 9.93428L67.9451 9.96385H67.9747V9.93428L68.0042 9.90471V9.87515L68.0338 9.84558L67.9747 9.81601ZM68.2408 9.75688L68.2112 9.72731L68.2408 9.69774V9.66818V9.63861V9.60904L68.2703 9.57948L68.2408 9.75688ZM68.1816 9.81601L68.1521 9.84558V9.87515H68.1225V9.90471V9.93428H68.1521H68.1816H68.2112V9.90471V9.87515V9.84558L68.1816 9.81601ZM68.4477 9.90471L68.4182 9.93428L68.3886 9.96385H68.359L68.3295 9.99341H68.359H68.3886H68.4182H68.4477H68.4773H68.5069L68.5364 9.96385L68.566 9.99341H68.5364V9.96385V9.93428L68.5069 9.90471V9.87515L68.4477 9.90471ZM67.9155 9.93428L67.8564 9.96385L67.8268 9.99341L67.7972 10.023L67.7677 10.0525L67.7381 10.0821V10.1117V10.1412L67.7085 10.1708H67.679H67.6494V10.2004H67.6198H67.5903V10.23V10.2595V10.2891L67.5311 10.3187L67.472 10.3482L67.4424 10.3778L67.3833 10.4074L67.3537 10.4369L67.3242 10.4665L67.2946 10.4961L67.265 10.5552L67.2355 10.5848V10.6143L67.2059 10.6439H67.2355V10.6735L67.2946 10.703L67.3242 10.7326L67.3833 10.7622L67.4424 10.7917L67.5016 10.8213L67.5311 10.8509L67.5903 10.8804L67.6494 10.91L67.679 10.9396H67.7085H67.7381L67.7677 10.91L67.7972 10.8804L67.8268 10.8509L67.8564 10.8213H67.886V10.8509L67.9155 10.8804V10.91V10.9396V10.9691V10.9987L67.9451 11.0283V11.0578L67.9747 11.0874H68.0042H68.0338L68.0634 11.0578L68.0929 11.0283L68.1225 10.9987L68.1521 10.9691L68.1816 10.9396L68.2112 10.8804L68.2408 10.8213V10.7622V10.703V10.6439L68.2112 10.5848V10.5256L68.1816 10.4665L68.1521 10.4369L68.1225 10.4074L68.0929 10.3778L68.0634 10.3482L68.0338 10.3187V10.2891L68.0042 10.2595L68.0338 10.23V10.2595L68.0042 10.2891V10.3187L67.9747 10.3482L67.9451 10.3778L67.9155 10.3482V10.2891L67.886 10.23V9.99341L67.8564 9.93428L67.8268 9.90471L67.7972 9.87515L67.9155 9.93428ZM66.8807 10.4074L66.8511 10.3778L66.8215 10.3482L66.792 10.3187H66.7624H66.7328L66.7033 10.3482H66.6737L66.6441 10.3778L66.6146 10.4074V10.4369V10.4665V10.4961L66.6441 10.5256L66.6737 10.5848L66.7033 10.6439L66.7328 10.6735L66.7624 10.703L66.792 10.7326L66.8215 10.7622L66.8511 10.7917L66.8807 10.8213L66.9102 10.8509L66.9398 10.8804L66.9694 10.91L66.9989 10.9396H67.0285L67.0581 10.9691V10.8804V10.8509V10.8213V10.7917L67.0876 10.7622V10.7326V10.703V10.6735L67.0581 10.6439L67.0285 10.5848L66.9989 10.5552L66.9694 10.4961L66.9398 10.4665L66.9102 10.4369L66.8807 10.4074ZM67.4424 10.5552H67.4129H67.3833H67.3537H67.3242H67.2946H67.265L67.2355 10.5848L67.2059 10.6143V10.6439H67.1763L67.2059 10.6735V10.703L67.265 10.7326L67.2946 10.7622L67.3242 10.7917L67.3537 10.8213L67.3833 10.8509H67.4129L67.4424 10.8213L67.472 10.7917L67.5016 10.7622H67.5311L67.5607 10.7326H67.5903L67.6198 10.703H67.6494L67.679 10.6735H67.7085V10.6439V10.5848L67.679 10.5552H67.6494H67.6198L67.5903 10.5256H67.5607H67.5311H67.4424V10.5552ZM68.3886 10.6439L68.359 10.703L68.2999 10.7326L68.2408 10.7917L68.1816 10.8213L68.1521 10.8509V10.8213L68.1816 10.7622V10.7917V10.8213L68.2112 10.8509L68.2408 10.8804L68.2703 10.91H68.2999L68.3295 10.9396V10.8804L68.359 10.8509L68.3886 10.8213L68.4182 10.7917L68.4477 10.7622L68.4773 10.7326L68.5069 10.703V10.6735L68.3886 10.6439ZM68.5956 10.3187V10.3482L68.566 10.3778V10.4074V10.4369L68.5364 10.4665V10.4961V10.5256L68.566 10.4961H68.5956V10.4665L68.6251 10.4369L68.6547 10.4074L68.6843 10.3778V10.3482V10.3187V10.2891L68.6547 10.2595V10.23L68.5956 10.3187ZM68.7138 10.4074L68.6843 10.3778L68.6547 10.3482V10.3187H68.6251V10.3482V10.3778V10.4074H68.7138L68.7434 10.3778L68.773 10.3482H68.8025L68.8321 10.3187V10.2891H68.8025V10.3187L68.773 10.3482L68.7434 10.3778L68.7138 10.4074ZM69.1278 10.1412L69.0686 10.1708L69.0391 10.2004H69.0095V10.23L68.9799 10.2595L68.9504 10.2891L68.9208 10.3187V10.2891L68.8912 10.3187V10.3482L68.9208 10.3778V10.4074H68.9504L68.9799 10.4369L69.0095 10.4665L69.0391 10.4961H69.0686H69.0982L69.1278 10.4665H69.1573H69.1869V10.4961L69.2165 10.5256L69.246 10.5552L69.2756 10.5848V10.6143V10.6439V10.6735L69.3052 10.703L69.3347 10.7326L69.3643 10.7622H69.3939L69.4234 10.7917H69.453H69.4826H69.5121H69.5417L69.5713 10.8213H69.6008L69.6304 10.8509L69.66 10.8804L69.6895 10.91L69.7191 10.9396L69.7487 10.9691H69.7782H69.8078H69.8374V10.9396L69.8669 10.91V10.8804V10.8509V10.8213V10.7917L69.8374 10.7622H69.8078H69.7191V10.7326V10.703V10.5848V10.5552V10.5256V10.4961V10.4665L69.6895 10.4369L69.66 10.4074L69.6304 10.3778L69.6008 10.3482L69.5713 10.3187L69.5417 10.2891L69.5121 10.2595L69.4826 10.23L69.453 10.2004L69.4234 10.1708L69.3939 10.1412L69.3643 10.1117H69.3347L69.3052 10.0821H69.2756L69.1278 10.1412ZM69.5713 10.91L69.5121 10.9396L69.4826 10.9691L69.453 10.9987L69.4234 11.0283L69.3939 11.0578L69.3643 11.0874L69.3347 11.117L69.3052 11.1761L69.246 11.2648L69.2165 11.3239L69.1869 11.3535H69.1573L69.1278 11.3239L69.0982 11.2944L69.0686 11.2648L69.0391 11.2352L69.0095 11.2057L68.9799 11.1761L68.9504 11.1465L68.9208 11.117L68.8912 11.0874L68.8617 11.0578L68.8321 11.0283L68.8025 10.9987L68.773 10.9691H68.7434L68.7138 10.9987L68.6843 11.0283H68.8321L68.8025 11.0578L68.773 11.0874L68.7434 11.117L68.6547 11.1465L68.5956 11.1761L68.5364 11.2057L68.4477 11.2352L68.3886 11.2648L68.3295 11.2944L68.2703 11.3239L68.1816 11.3535V11.3831H68.2408L68.2112 11.4126V11.4422H68.1816V11.4718H68.1521L68.0634 11.5309L67.9747 11.5605L67.886 11.6196L67.7972 11.6787L67.7085 11.7379L67.6198 11.797L67.5311 11.8561L67.4129 11.9153H67.3833L67.3537 11.9448L67.3242 11.9744L67.2946 12.004L67.265 12.0335L67.2355 12.0631L67.2059 12.0927L67.1763 12.1222L67.1468 12.1518V12.1814L67.1763 12.2109V12.2405V12.2701V12.2996V12.0631V12.0927V12.1222L67.1468 12.1518V12.1814V12.2109L67.1172 12.2405L67.0876 12.2701L67.0581 12.2996L67.0285 12.3292L66.9989 12.3588V12.3883L66.9694 12.4179V12.4475L66.9398 12.477V12.5066L66.9102 12.5362V12.5657V12.5953V12.6249L66.9398 12.6544L66.9694 12.684L67.0285 12.7136L67.0581 12.7432H67.0876H67.1468H67.1763H67.2355H67.2946L67.3242 12.7136H67.4129L67.472 12.684L67.5311 12.6544L67.5903 12.6249L67.6494 12.5953L67.7085 12.5657H67.7677H67.8564H67.886L67.9155 12.5953L67.9451 12.6249L67.9747 12.6544L68.0042 12.684L68.0338 12.7136L68.0634 12.7432L68.0929 12.7727L68.1521 12.8319L68.1816 12.891L68.2112 12.9501L68.2408 13.0093L68.2999 13.0684L68.359 13.1275L68.4182 13.1571L68.5069 13.1867L68.5364 13.1571L68.566 13.1275H68.5956L68.6251 13.098V13.0684L68.6547 13.0388L68.6843 13.0093L68.7138 12.9797L68.8025 12.9206L68.8912 12.8614L68.9799 12.8023L69.0686 12.7432L69.1573 12.684L69.246 12.6249L69.3347 12.5657L69.4234 12.5066L69.453 12.477L69.5121 12.4475L69.5417 12.4179L69.5713 12.3588L69.6008 12.3292L69.6304 12.2701L69.66 12.2109L69.6895 12.1518L69.7191 12.0927V12.0335V11.9744V11.9153V11.8561V11.797V11.7379V11.6787V11.59V11.5309L69.6895 11.4422V11.3535L69.66 11.2944L69.6304 11.2057V11.117L69.5713 10.91ZM67.679 13.0388H67.6494V13.0684L67.6198 13.0388H67.5903H67.5607H67.5311L67.5016 13.0684V13.098V13.1275H67.5311V13.1571H67.5607V13.1867H67.5903V13.2162L67.6198 13.2458L67.6494 13.2754H67.679H67.7085L67.7381 13.2458V13.2162V13.1571L67.7085 13.1275V13.098H67.679H67.6494L67.679 13.0388ZM69.2165 12.9797L69.1278 13.0093L69.0686 13.0388L68.9799 13.0684L68.9208 13.098L68.8321 13.1275L68.773 13.1571L68.6843 13.1867L68.5956 13.2162H68.566L68.5364 13.2458L68.5069 13.2754V13.2458L68.4773 13.2754V13.3049L68.4477 13.3345H68.5364L68.5956 13.3049L68.6843 13.2754L68.7434 13.2458L68.8321 13.2162L68.9208 13.1571L69.0095 13.1275L69.0982 13.098L69.1278 13.0684L69.1573 13.0388L69.1869 13.0093V12.9797H69.2165ZM69.6008 12.5657V12.5953H69.5713V12.6249H69.5417V12.5953L69.5121 12.6544L69.4826 12.7136L69.453 12.7432L69.4234 12.7727L69.3939 12.8023L69.3643 12.8319L69.3347 12.8023H69.3643L69.3347 12.8319L69.3643 12.8614L69.3939 12.891L69.4234 12.9206H69.453H69.4826H69.5121L69.5417 12.891L69.5713 12.8614L69.6008 12.8319V12.8023L69.6304 12.7727V12.7432V12.684V12.6544V12.6249V12.5953L69.6008 12.5657Z" fill="#00A651"/>
<path fill-rule="evenodd" clip-rule="evenodd" d="M115.518 12.832C116.287 12.832 117.056 13.039 117.795 13.4234C118.534 13.8373 119.126 14.3991 119.51 15.1383C119.924 15.8774 120.131 16.6462 120.131 17.4445C120.131 18.2428 119.924 19.0115 119.51 19.7507C119.096 20.4899 118.534 21.0517 117.795 21.4656C117.056 21.8795 116.287 22.0865 115.489 22.0865C114.691 22.0865 113.922 21.8795 113.183 21.4656C112.443 21.0517 111.882 20.4899 111.468 19.7507C111.054 19.0115 110.847 18.2428 110.847 17.4445C110.847 16.6462 111.054 15.8774 111.468 15.1383C111.882 14.3991 112.473 13.8373 113.212 13.4234C113.981 13.039 114.72 12.832 115.518 12.832ZM115.518 13.6008C114.868 13.6008 114.247 13.7782 113.626 14.1034C113.005 14.4287 112.532 14.9017 112.177 15.5226C111.823 16.1435 111.645 16.794 111.645 17.4445C111.645 18.095 111.823 18.7454 112.148 19.3663C112.503 19.9873 112.976 20.4603 113.567 20.7856C114.188 21.1404 114.809 21.2882 115.489 21.2882C116.169 21.2882 116.79 21.1108 117.411 20.7856C118.032 20.4308 118.505 19.9577 118.83 19.3663C119.155 18.7454 119.333 18.1245 119.333 17.4445C119.333 16.7644 119.155 16.114 118.83 15.5226C118.475 14.9017 118.002 14.4287 117.381 14.1034C116.79 13.7782 116.139 13.6008 115.518 13.6008ZM113.478 20.0168V15.0496H115.193C115.785 15.0496 116.198 15.0791 116.465 15.1974C116.731 15.2861 116.938 15.4635 117.086 15.6705C117.233 15.907 117.322 16.1435 117.322 16.4096C117.322 16.7644 117.204 17.0897 116.938 17.3558C116.672 17.6219 116.346 17.7697 115.903 17.7993C116.08 17.8584 116.228 17.9471 116.317 18.0654C116.524 18.2724 116.76 18.5976 117.056 19.0411L117.677 20.0168H116.701L116.258 19.2185C115.903 18.5976 115.637 18.2132 115.43 18.0654C115.282 17.9471 115.075 17.888 114.779 17.888H114.306V19.9873H113.478V20.0168ZM114.277 17.2375H115.252C115.725 17.2375 116.021 17.1784 116.199 17.0306C116.376 16.8827 116.465 16.7053 116.465 16.4688C116.465 16.3209 116.435 16.2027 116.346 16.0844C116.258 15.9661 116.139 15.8774 116.021 15.8183C115.873 15.7592 115.607 15.7296 115.223 15.7296H114.306V17.2375H114.277Z" fill="#231F20"/>
</svg>
