<svg width="8" height="14" viewBox="0 0 8 14" fill="none" xmlns="http://www.w3.org/2000/svg">
<path d="M7.3078 0.172653L5.5974 0.169922C3.67581 0.169922 2.434 1.43768 2.434 3.39987V4.88909H0.714258C0.565652 4.88909 0.445312 5.00897 0.445312 5.15684V7.31455C0.445312 7.46242 0.565789 7.58216 0.714258 7.58216H2.434V13.0268C2.434 13.1746 2.55434 13.2944 2.70294 13.2944H4.94671C5.09532 13.2944 5.21566 13.1745 5.21566 13.0268V7.58216H7.22643C7.37504 7.58216 7.49538 7.46242 7.49538 7.31455L7.4962 5.15684C7.4962 5.08584 7.4678 5.01784 7.41744 4.96759C7.36708 4.91735 7.29847 4.88909 7.22712 4.88909H5.21566V3.62665C5.21566 3.01988 5.36097 2.71185 6.15532 2.71185L7.30753 2.71144C7.456 2.71144 7.57634 2.59156 7.57634 2.44383V0.440267C7.57634 0.29267 7.45613 0.172926 7.3078 0.172653Z" fill="white"/>
</svg>
