<svg width="12" height="12" viewBox="0 0 12 12" fill="none" xmlns="http://www.w3.org/2000/svg">
<path d="M11.7052 11.6382L11.7081 11.6378V7.42649C11.7081 5.3663 11.2623 3.7793 8.84188 3.7793C7.67828 3.7793 6.89742 4.41467 6.57863 5.01704H6.54498V3.97163H4.25V11.6378H6.6397V7.84178C6.6397 6.84231 6.83011 5.87585 8.074 5.87585C9.29962 5.87585 9.31789 7.01646 9.31789 7.90589V11.6382H11.7052Z" fill="white"/>
<path d="M0.355469 3.98633H2.74806V11.6525H0.355469V3.98633Z" fill="white"/>
<path d="M1.38574 0C0.620745 0 0 0.617673 0 1.37888C0 2.14009 0.620745 2.77068 1.38574 2.77068C2.15073 2.77068 2.77147 2.14009 2.77147 1.37888C2.77099 0.617673 2.15025 0 1.38574 0V0Z" fill="white"/>
</svg>
